PathFileType	4	(X/Y/Z)	C:/Users/beibeiliu/ov580/test_trc/User2\sequence.21_training_dense_left.trc
DataRate	CameraRate	NumFrames	NumMarkers	Units	OrigDataRate	OrigDataStartFrame	OrigNumFrames
120	120	7	19	mm	120	1	322
Frame#	Time	ThumbCMC			ThumbMCP			ThumbIP			ThumbTip			IndexMCP			IndexPIP			IndexTip			MiddleMCP			MiddlePIP			MiddleTip			RingMCP			RingPIP			RingTip			PinkyMCP			PinkyPIP			PinkyTip			BackHand1			BackHand2			BackHand3	
		X0	Y0	Z0	X1	Y1	Z1	X2	Y2	Z2	X3	Y3	Z3	X4	Y4	Z4	X5	Y5	Z5	X6	Y6	Z6	X7	Y7	Z7	X8	Y8	Z8	X9	Y9	Z9	X10	Y10	Z10	X11	Y11	Z11	X12	Y12	Z12	X13	Y13	Z13	X14	Y14	Z14	X15	Y15	Z15	X16	Y16	Z16	X17	Y17	Z17	X18	Y18	Z18	
0	0	-151.22	-41.8063	72.2324	-133.723	-56.5653	51.637	-112.445	-67.9316	25.7108	-100.122	-80.2019	4.38118	-174.921	-33.2537	-8.53839	-169.673	-35.0832	-35.4383	-167.863	-36.0315	-68.167	-202.748	-34.2418	-15.9832	-208.257	-38.1356	-47.1098	-215.028	-43.7591	-77.4637	-225.309	-40.5883	-9.45792	-232.116	-43.1907	-31.3872	-238.735	-47.1372	-59.1984	-247.486	-50.9751	12.5025	-255.912	-53.8939	-7.9206	-263.069	-50.4669	-32.9088	-220.62	-28.0113	44.5683	-219.311	-19.0571	81.4032	-185.908	-18.5676	58.0777	
1	0.00833333	-153.275	-43.1228	70.1784	-133.292	-56.1885	50.3769	-118.1	-69.0627	25.049	-101.593	-81.4784	4.84392	-175.933	-33.3305	-10.0674	-172.036	-34.5373	-39.5939	-170.622	-36.7877	-69.0797	-203.055	-34.5423	-18.5491	-207.889	-38.2033	-44.5875	-216.362	-43.9152	-77.2042	-229.893	-40.3437	-6.69231	-231.694	-43.729	-31.9685	-239.642	-46.9068	-64.2685	-244.599	-51.2061	15.7902	-258.592	-52.599	-12.4082	-265.932	-49.2454	-30.4706	-222.882	-28.8637	48.7131	-218.744	-18.2423	78.6068	-185.332	-19.8653	56.4491	
2	0.0166667	-153.445	-43.7351	72.3089	-135.28	-56.6381	53.1606	-114.537	-69.8223	22.4267	-104.254	-81.2885	8.72182	-170.835	-33.3857	-13.3192	-172.246	-35.168	-37.2579	-166.878	-36.4232	-64.7535	-205.026	-33.9917	-14.8602	-208.293	-38.6429	-45.5488	-213.045	-43.1515	-75.6612	-224.415	-39.4752	-5.4114	-232.697	-43.9873	-36.2128	-239.966	-47.3836	-63.0911	-246.527	-49.7271	14.8278	-258.092	-53.1602	-10.1984	-264.6	-51.2953	-31.6027	-223.538	-27.866	48.3034	-217.84	-19.6089	78.6905	-186.558	-19.9111	59.5839	
3	0.025	-150.243	-43.3358	67.4377	-135.736	-56.9324	49.9058	-116.242	-69.4758	24.103	-103.014	-80.9886	10.1231	-173.678	-33.5433	-12.7242	-168.21	-33.9723	-40.4421	-172.522	-36.7814	-63.712	-202.523	-33.7526	-13.7084	-208.957	-38.5965	-47.4946	-216.001	-43.4892	-75.9118	-224.594	-39.1626	-8.00373	-233.467	-43.631	-34.5629	-236.973	-46.7608	-58.5159	-241.792	-50.1637	15.1794	-253.638	-51.5035	-10.7405	-264.663	-48.6718	-30.5906	-221.709	-28.7875	45.5619	-221.376	-19.3521	78.049	-185.01	-19.5598	56.5345	
4	0.0333333	-154.326	-44.124	71.7258	-134.209	-57.1017	48.5175	-113.411	-69.3439	25.9364	-99.9395	-80.9772	9.01509	-170.798	-33.1411	-9.11429	-169.715	-34.4502	-35.0248	-167.765	-35.5517	-62.7052	-200.849	-32.8655	-19.2584	-206.198	-39.2802	-49.6534	-212.985	-42.8123	-74.4329	-229.038	-40.5764	-5.96054	-232.642	-43.3607	-35.7564	-240.073	-47.943	-62.1226	-247.645	-50.5659	14.1983	-252.073	-52.7237	-9.55808	-264.801	-49.0445	-30.4834	-222.331	-27.1296	46.5144	-215.605	-18.5545	76.5375	-185.488	-20.7489	57.0688	
5	0.0416667	-153.856	-44.7266	67.5807	-135.328	-57.1822	49.2777	-115.889	-69.5756	22.0183	-99.5711	-81.362	7.8207	-169.945	-33.823	-7.96511	-172.511	-35.5553	-39.2123	-168.494	-36.6041	-62.8713	-204.627	-34.4926	-17.6548	-206.667	-38.6707	-46.8171	-216.236	-43.8808	-75.0964	-229.602	-40.5814	-5.94429	-235.753	-44.053	-34.7828	-241.175	-47.7634	-58.6898	-245.517	-49.5851	14.0526	-252.26	-53.2438	-7.57364	-265.542	-51.7257	-29.9535	-218.517	-27.0104	49.6964	-217.542	-19.4952	78.9062	-181.899	-20.7957	58.1782	
6	0.05	-151.216	-44.3357	67.807	-132.557	-57.4167	48.5458	-117.038	-71.0455	26.3503	-102.49	-81.4203	8.27095	-173.784	-33.9978	-13.0879	-168.773	-35.8386	-35.3458	-170.728	-37.0209	-63.4764	-205.111	-34.7602	-18.2957	-205.635	-38.7248	-44.7089	-213.851	-42.3965	-77.3692	-224.238	-40.1283	-4.94796	-233.568	-44.1125	-32.411	-238	-46.3103	-63.3576	-247.675	-50.2957	14.1502	-256.703	-53.0903	-12.3147	-266.039	-51.0677	-31.7555	-217.098	-29.1833	49.8475	-218.722	-19.469	80.4322	-184.924	-19.3706	59.426	
